G04 DipTrace 3.0.0.2*
G04 FrontPanel(LCD4x20).GTS*
%MOMM*%
G04 #@! TF.FileFunction,Soldermask,Top*
G04 #@! TF.Part,Single*
%ADD23C,3.0*%
%ADD24C,3.5*%
%ADD28C,2.2*%
%ADD30R,1.2X1.0*%
%ADD32C,2.2*%
%ADD34O,2.2X1.7*%
%FSLAX35Y35*%
G04*
G71*
G90*
G75*
G01*
G04 TopMask*
%LPD*%
D34*
X1200000Y-1600000D3*
X1454000D3*
X1200000Y-1854000D3*
X1454000D3*
X1200000Y-2108000D3*
X1454000D3*
X1200000Y-2362000D3*
X1454000D3*
X1200000Y-2616000D3*
X1454000D3*
X1200000Y-2870000D3*
X1454000D3*
X1200000Y-3124000D3*
X1454000D3*
X1200000Y-3378000D3*
X1454000D3*
D23*
X1327000Y-709000D3*
Y-4269000D3*
D34*
X2300000Y-3300000D3*
X2046000D3*
X2300000Y-3046000D3*
X2046000D3*
X2300000Y-2792000D3*
X2046000D3*
X2300000Y-2538000D3*
X2046000D3*
X2300000Y-2284000D3*
X2046000D3*
X2300000Y-2030000D3*
X2046000D3*
X2300000Y-1776000D3*
X2046000D3*
D32*
X12968000Y-3046000D3*
Y-2792000D3*
Y-2538000D3*
Y-2284000D3*
Y-2030000D3*
D24*
X2196000Y-1088000D3*
Y-3988000D3*
X12996000Y-1088000D3*
Y-3988000D3*
D23*
X500000Y-500000D3*
Y-4500000D3*
X16500000Y-500000D3*
Y-4500000D3*
X14000000Y-500000D3*
Y-4500000D3*
D30*
X14968133Y-968000D3*
X14808133D3*
X14968133Y-4270000D3*
X14808133D3*
X15476133Y-968000D3*
X15316133D3*
X15476133Y-4270000D3*
X15316133D3*
D28*
X15000000Y-2100000D3*
X13750000D3*
X15000000Y-1600000D3*
X13750000D3*
X15000000Y-3500000D3*
X13750000D3*
X15000000Y-3000000D3*
X13750000D3*
X16500000Y-2100000D3*
X15250000D3*
X16500000Y-1600000D3*
X15250000D3*
X16500000Y-3500000D3*
X15250000D3*
X16500000Y-3000000D3*
X15250000D3*
X700000Y-4000000D3*
X200000Y-3750000D3*
X700000Y-3500000D3*
M02*
