G04 DipTrace 3.0.0.2*
G04 FrontPanel.GTO*
%MOMM*%
G04 #@! TF.FileFunction,Legend,Top*
G04 #@! TF.Part,Single*
%ADD10C,0.25*%
%ADD15C,0.2*%
%ADD35C,0.19608*%
%ADD36C,0.39216*%
%ADD37C,0.11765*%
%FSLAX35Y35*%
G04*
G71*
G90*
G75*
G01*
G04 TopSilk*
%LPD*%
X1796000Y-388000D2*
D10*
X13596000D1*
Y-4688000D1*
X1796000D1*
Y-388000D1*
X2786020Y-728130D2*
X12406560D1*
Y-4347870D1*
X2786020D1*
Y-728130D1*
X15064012Y-1048000D2*
Y-888000D1*
X14712282Y-1048000D2*
Y-888000D1*
X15064012Y-1048000D2*
X15024020D1*
X14752238D2*
X14712282D1*
X14752238Y-888000D2*
X14712282D1*
X15064012D2*
X15024020D1*
X15064012Y-4350000D2*
Y-4190000D1*
X14712282Y-4350000D2*
Y-4190000D1*
X15064012Y-4350000D2*
X15024020D1*
X14752238D2*
X14712282D1*
X14752238Y-4190000D2*
X14712282D1*
X15064012D2*
X15024020D1*
X15572012Y-1048000D2*
Y-888000D1*
X15220282Y-1048000D2*
Y-888000D1*
X15572012Y-1048000D2*
X15532020D1*
X15260238D2*
X15220282D1*
X15260238Y-888000D2*
X15220282D1*
X15572012D2*
X15532020D1*
X15572012Y-4350000D2*
Y-4190000D1*
X15220282Y-4350000D2*
Y-4190000D1*
X15572012Y-4350000D2*
X15532020D1*
X15260238D2*
X15220282D1*
X15260238Y-4190000D2*
X15220282D1*
X15572012D2*
X15532020D1*
X13774990Y-2450000D2*
X14975010D1*
Y-1250000D2*
X13774990D1*
Y-2249960D2*
Y-2450000D1*
Y-1450040D2*
Y-1250000D1*
X14975010Y-2249960D2*
Y-2450000D1*
Y-1250000D2*
Y-1450040D1*
Y-1949960D2*
Y-1750040D1*
X13774990Y-1949960D2*
Y-1750040D1*
Y-3850000D2*
X14975010D1*
Y-2650000D2*
X13774990D1*
Y-3649960D2*
Y-3850000D1*
Y-2850040D2*
Y-2650000D1*
X14975010Y-3649960D2*
Y-3850000D1*
Y-2650000D2*
Y-2850040D1*
Y-3349960D2*
Y-3150040D1*
X13774990Y-3349960D2*
Y-3150040D1*
X15274990Y-2450000D2*
X16475010D1*
Y-1250000D2*
X15274990D1*
Y-2249960D2*
Y-2450000D1*
Y-1450040D2*
Y-1250000D1*
X16475010Y-2249960D2*
Y-2450000D1*
Y-1250000D2*
Y-1450040D1*
Y-1949960D2*
Y-1750040D1*
X15274990Y-1949960D2*
Y-1750040D1*
Y-3850000D2*
X16475010D1*
Y-2650000D2*
X15274990D1*
Y-3649960D2*
Y-3850000D1*
Y-2850040D2*
Y-2650000D1*
X16475010Y-3649960D2*
Y-3850000D1*
Y-2650000D2*
Y-2850040D1*
Y-3349960D2*
Y-3150040D1*
X15274990Y-3349960D2*
Y-3150040D1*
X75000Y-3424990D2*
X562490D1*
X75000D2*
Y-4075010D1*
X562490D1*
X712493Y-3879990D2*
Y-3620010D1*
X75000Y-3977500D2*
X187520Y-4075010D1*
X75000Y-3522500D2*
X187520Y-3424990D1*
X1365250Y-1365250D2*
D15*
X1555750D1*
X1460500Y-1492250D1*
X1365250Y-1365250D1*
X1974727Y-202013D2*
D35*
Y-329623D1*
X2017264D1*
X2035514Y-323446D1*
X2047727Y-311373D1*
X2053764Y-299160D1*
X2059800Y-281050D1*
Y-250586D1*
X2053764Y-232336D1*
X2047727Y-220263D1*
X2035514Y-208050D1*
X2017264Y-202013D1*
X1974727D1*
X2099016D2*
Y-329623D1*
X2223305Y-220263D2*
X2211232Y-208050D1*
X2192982Y-202013D1*
X2168695D1*
X2150445Y-208050D1*
X2138232Y-220263D1*
Y-232336D1*
X2144409Y-244550D1*
X2150445Y-250586D1*
X2162518Y-256623D1*
X2199018Y-268836D1*
X2211232Y-274873D1*
X2217268Y-281050D1*
X2223305Y-293123D1*
Y-311373D1*
X2211232Y-323446D1*
X2192982Y-329623D1*
X2168695D1*
X2150445Y-323446D1*
X2138232Y-311373D1*
X2262520Y-268836D2*
X2317270D1*
X2335380Y-262800D1*
X2341557Y-256623D1*
X2347594Y-244550D1*
Y-226300D1*
X2341557Y-214227D1*
X2335380Y-208050D1*
X2317270Y-202013D1*
X2262520D1*
Y-329623D1*
X2386809Y-226440D2*
X2399023Y-220263D1*
X2417273Y-202154D1*
Y-329623D1*
X14810771Y-762800D2*
X14865380D1*
X14883630Y-756623D1*
X14889807Y-750586D1*
X14895844Y-738513D1*
Y-726300D1*
X14889807Y-714227D1*
X14883630Y-708050D1*
X14865380Y-702013D1*
X14810771D1*
Y-829623D1*
X14853307Y-762800D2*
X14895844Y-829623D1*
X14935059Y-726440D2*
X14947273Y-720263D1*
X14965523Y-702154D1*
Y-829623D1*
X14783466Y-4064800D2*
X14838075D1*
X14856325Y-4058623D1*
X14862502Y-4052586D1*
X14868539Y-4040513D1*
Y-4028300D1*
X14862502Y-4016227D1*
X14856325Y-4010050D1*
X14838075Y-4004013D1*
X14783466D1*
Y-4131623D1*
X14826002Y-4064800D2*
X14868539Y-4131623D1*
X14913931Y-4034477D2*
Y-4028440D1*
X14919968Y-4016227D1*
X14926005Y-4010190D1*
X14938218Y-4004154D1*
X14962505D1*
X14974578Y-4010190D1*
X14980614Y-4016227D1*
X14986791Y-4028440D1*
Y-4040513D1*
X14980614Y-4052727D1*
X14968541Y-4070836D1*
X14907755Y-4131623D1*
X14992828D1*
X15291466Y-762800D2*
X15346075D1*
X15364325Y-756623D1*
X15370502Y-750586D1*
X15376539Y-738513D1*
Y-726300D1*
X15370502Y-714227D1*
X15364325Y-708050D1*
X15346075Y-702013D1*
X15291466D1*
Y-829623D1*
X15334002Y-762800D2*
X15376539Y-829623D1*
X15427968Y-702154D2*
X15494651D1*
X15458291Y-750727D1*
X15476541D1*
X15488614Y-756763D1*
X15494651Y-762800D1*
X15500828Y-781050D1*
Y-793123D1*
X15494651Y-811373D1*
X15482578Y-823586D1*
X15464328Y-829623D1*
X15446078D1*
X15427968Y-823586D1*
X15421931Y-817410D1*
X15415755Y-805336D1*
X15288447Y-4064800D2*
X15343057D1*
X15361307Y-4058623D1*
X15367484Y-4052586D1*
X15373521Y-4040513D1*
Y-4028300D1*
X15367484Y-4016227D1*
X15361307Y-4010050D1*
X15343057Y-4004013D1*
X15288447D1*
Y-4131623D1*
X15330984Y-4064800D2*
X15373521Y-4131623D1*
X15473523D2*
Y-4004154D1*
X15412736Y-4089086D1*
X15503846D1*
X14302303Y-1082263D2*
X14290230Y-1070050D1*
X14271980Y-1064013D1*
X14247693D1*
X14229443Y-1070050D1*
X14217230Y-1082263D1*
Y-1094336D1*
X14223406Y-1106550D1*
X14229443Y-1112586D1*
X14241516Y-1118623D1*
X14278016Y-1130836D1*
X14290230Y-1136873D1*
X14296266Y-1143050D1*
X14302303Y-1155123D1*
Y-1173373D1*
X14290230Y-1185446D1*
X14271980Y-1191623D1*
X14247693D1*
X14229443Y-1185446D1*
X14217230Y-1173373D1*
X14341518Y-1064013D2*
X14371982Y-1191623D1*
X14402305Y-1064013D1*
X14432628Y-1191623D1*
X14463091Y-1064013D1*
X14502307Y-1088440D2*
X14514520Y-1082263D1*
X14532770Y-1064154D1*
Y-1191623D1*
X14274998Y-2482263D2*
X14262925Y-2470050D1*
X14244675Y-2464013D1*
X14220388D1*
X14202138Y-2470050D1*
X14189925Y-2482263D1*
Y-2494336D1*
X14196102Y-2506550D1*
X14202138Y-2512586D1*
X14214211Y-2518623D1*
X14250711Y-2530836D1*
X14262925Y-2536873D1*
X14268961Y-2543050D1*
X14274998Y-2555123D1*
Y-2573373D1*
X14262925Y-2585446D1*
X14244675Y-2591623D1*
X14220388D1*
X14202138Y-2585446D1*
X14189925Y-2573373D1*
X14314213Y-2464013D2*
X14344677Y-2591623D1*
X14375000Y-2464013D1*
X14405323Y-2591623D1*
X14435787Y-2464013D1*
X14481179Y-2494477D2*
Y-2488440D1*
X14487216Y-2476227D1*
X14493252Y-2470190D1*
X14505466Y-2464154D1*
X14529752D1*
X14541825Y-2470190D1*
X14547862Y-2476227D1*
X14554039Y-2488440D1*
Y-2500513D1*
X14547862Y-2512727D1*
X14535789Y-2530836D1*
X14475002Y-2591623D1*
X14560075D1*
X15774998Y-1082263D2*
X15762925Y-1070050D1*
X15744675Y-1064013D1*
X15720388D1*
X15702138Y-1070050D1*
X15689925Y-1082263D1*
Y-1094336D1*
X15696102Y-1106550D1*
X15702138Y-1112586D1*
X15714211Y-1118623D1*
X15750711Y-1130836D1*
X15762925Y-1136873D1*
X15768961Y-1143050D1*
X15774998Y-1155123D1*
Y-1173373D1*
X15762925Y-1185446D1*
X15744675Y-1191623D1*
X15720388D1*
X15702138Y-1185446D1*
X15689925Y-1173373D1*
X15814213Y-1064013D2*
X15844677Y-1191623D1*
X15875000Y-1064013D1*
X15905323Y-1191623D1*
X15935787Y-1064013D1*
X15987216Y-1064154D2*
X16053898D1*
X16017539Y-1112727D1*
X16035789D1*
X16047862Y-1118763D1*
X16053898Y-1124800D1*
X16060075Y-1143050D1*
Y-1155123D1*
X16053898Y-1173373D1*
X16041825Y-1185586D1*
X16023575Y-1191623D1*
X16005325D1*
X15987216Y-1185586D1*
X15981179Y-1179410D1*
X15975002Y-1167336D1*
X15771980Y-2482263D2*
X15759906Y-2470050D1*
X15741656Y-2464013D1*
X15717370D1*
X15699120Y-2470050D1*
X15686906Y-2482263D1*
Y-2494336D1*
X15693083Y-2506550D1*
X15699120Y-2512586D1*
X15711193Y-2518623D1*
X15747693Y-2530836D1*
X15759906Y-2536873D1*
X15765943Y-2543050D1*
X15771980Y-2555123D1*
Y-2573373D1*
X15759906Y-2585446D1*
X15741656Y-2591623D1*
X15717370D1*
X15699120Y-2585446D1*
X15686906Y-2573373D1*
X15811195Y-2464013D2*
X15841659Y-2591623D1*
X15871982Y-2464013D1*
X15902305Y-2591623D1*
X15932768Y-2464013D1*
X16032770Y-2591623D2*
Y-2464154D1*
X15971984Y-2549086D1*
X16063094D1*
X291943Y-3214013D2*
X340516Y-3341623D1*
X389089Y-3214013D1*
X428305Y-3274800D2*
X482914D1*
X501164Y-3268623D1*
X507341Y-3262586D1*
X513378Y-3250513D1*
Y-3238300D1*
X507341Y-3226227D1*
X501164Y-3220050D1*
X482914Y-3214013D1*
X428305D1*
Y-3341623D1*
X470841Y-3274800D2*
X513378Y-3341623D1*
X552594Y-3238440D2*
X564807Y-3232263D1*
X583057Y-3214154D1*
Y-3341623D1*
X364722Y-3052509D2*
X237252D1*
X322185Y-3113296D1*
Y-3022186D1*
X279648Y-2982971D2*
X364721Y-2916148D1*
X279648D2*
X364721Y-2982971D1*
X267575Y-2870755D2*
X261539D1*
X249325Y-2864718D1*
X243289Y-2858682D1*
X237252Y-2846468D1*
Y-2822182D1*
X243289Y-2810109D1*
X249325Y-2804072D1*
X261539Y-2797895D1*
X273612D1*
X285825Y-2804072D1*
X303935Y-2816145D1*
X364721Y-2876932D1*
Y-2791859D1*
X237252Y-2716143D2*
X243289Y-2734393D1*
X261539Y-2746607D1*
X291862Y-2752643D1*
X310112D1*
X340435Y-2746607D1*
X358685Y-2734393D1*
X364721Y-2716143D1*
Y-2704070D1*
X358685Y-2685820D1*
X340435Y-2673747D1*
X310112Y-2667570D1*
X291862D1*
X261539Y-2673747D1*
X243289Y-2685820D1*
X237252Y-2704070D1*
Y-2716143D1*
X261539Y-2673747D2*
X340435Y-2746607D1*
X237112Y-2628354D2*
X364721D1*
Y-2555495D1*
X267435Y-2425170D2*
X255362Y-2431206D1*
X243148Y-2443420D1*
X237112Y-2455493D1*
Y-2479779D1*
X243148Y-2491993D1*
X255362Y-2504066D1*
X267435Y-2510243D1*
X285685Y-2516279D1*
X316148D1*
X334258Y-2510243D1*
X346471Y-2504066D1*
X358544Y-2491993D1*
X364721Y-2479779D1*
Y-2455493D1*
X358544Y-2443420D1*
X346471Y-2431206D1*
X334258Y-2425170D1*
X237112Y-2385954D2*
X364721D1*
Y-2343417D1*
X358544Y-2325167D1*
X346471Y-2312954D1*
X334258Y-2306917D1*
X316148Y-2300881D1*
X285685D1*
X267435Y-2306917D1*
X255362Y-2312954D1*
X243148Y-2325167D1*
X237112Y-2343417D1*
Y-2385954D1*
Y-2059182D2*
Y-2138219D1*
X364721D1*
X297898D2*
Y-2089646D1*
Y-2019966D2*
Y-1965357D1*
X291721Y-1947107D1*
X285685Y-1940930D1*
X273612Y-1934893D1*
X261398D1*
X249325Y-1940930D1*
X243148Y-1947107D1*
X237112Y-1965357D1*
Y-2019966D1*
X364721D1*
X297898Y-1977430D2*
X364721Y-1934893D1*
X237112Y-1859178D2*
X243148Y-1871391D1*
X255362Y-1883464D1*
X267435Y-1889641D1*
X285685Y-1895678D1*
X316148D1*
X334258Y-1889641D1*
X346471Y-1883464D1*
X358544Y-1871391D1*
X364721Y-1859178D1*
Y-1834891D1*
X358544Y-1822818D1*
X346471Y-1810605D1*
X334258Y-1804568D1*
X316148Y-1798532D1*
X285685D1*
X267435Y-1804568D1*
X255362Y-1810605D1*
X243148Y-1822818D1*
X237112Y-1834891D1*
Y-1859178D1*
Y-1674243D2*
X364721D1*
X237112Y-1759316D1*
X364721D1*
X237112Y-1592491D2*
X364721D1*
X237112Y-1635027D2*
Y-1549954D1*
X303935Y-1387292D2*
Y-1332542D1*
X297898Y-1314432D1*
X291721Y-1308255D1*
X279648Y-1302219D1*
X261398D1*
X249325Y-1308255D1*
X243148Y-1314432D1*
X237112Y-1332542D1*
Y-1387292D1*
X364721D1*
Y-1165717D2*
X237112Y-1214430D1*
X364721Y-1263003D1*
X322185Y-1244753D2*
Y-1183967D1*
X237112Y-1041428D2*
X364721D1*
X237112Y-1126501D1*
X364721D1*
X237112Y-923316D2*
Y-1002212D1*
X364721D1*
Y-923316D1*
X297898Y-1002212D2*
Y-953639D1*
X237112Y-884100D2*
X364721D1*
Y-811241D1*
X479648Y-1313296D2*
X564721D1*
X516148D2*
X497898Y-1307119D1*
X485685Y-1295046D1*
X479648Y-1282832D1*
Y-1264582D1*
X516148Y-1225367D2*
Y-1152507D1*
X503935D1*
X491722Y-1158544D1*
X485685Y-1164580D1*
X479648Y-1176794D1*
Y-1195044D1*
X485685Y-1207117D1*
X497898Y-1219330D1*
X516148Y-1225367D1*
X528222D1*
X546472Y-1219330D1*
X558545Y-1207117D1*
X564721Y-1195044D1*
Y-1176794D1*
X558545Y-1164580D1*
X546471Y-1152507D1*
X479648Y-1113292D2*
X564721Y-1076792D1*
X479648Y-1040432D1*
X552508Y-995180D2*
X558685Y-1001216D1*
X564721Y-995180D1*
X558685Y-989003D1*
X552508Y-995180D1*
X461539Y-949787D2*
X455362Y-937574D1*
X437252Y-919324D1*
X564721D1*
X5982220Y-2527190D2*
D36*
X5970147Y-2503043D1*
X5945720Y-2478617D1*
X5921574Y-2466543D1*
X5873001D1*
X5848574Y-2478617D1*
X5824428Y-2503043D1*
X5812074Y-2527190D1*
X5800001Y-2563690D1*
Y-2624617D1*
X5812074Y-2660836D1*
X5824428Y-2685263D1*
X5848574Y-2709409D1*
X5873001Y-2721763D1*
X5921574D1*
X5945720Y-2709409D1*
X5970147Y-2685263D1*
X5982220Y-2660836D1*
X6060652Y-2466543D2*
Y-2648763D1*
X6072725Y-2685263D1*
X6097152Y-2709409D1*
X6133652Y-2721763D1*
X6157798D1*
X6194298Y-2709409D1*
X6218725Y-2685263D1*
X6230798Y-2648763D1*
Y-2466543D1*
X6394302D2*
Y-2721763D1*
X6309229Y-2466543D2*
X6479375D1*
X6877700D2*
X6853273Y-2478617D1*
X6829127Y-2503043D1*
X6816773Y-2527190D1*
X6804700Y-2563690D1*
Y-2624617D1*
X6816773Y-2660836D1*
X6829127Y-2685263D1*
X6853273Y-2709409D1*
X6877700Y-2721763D1*
X6926273D1*
X6950419Y-2709409D1*
X6974846Y-2685263D1*
X6986919Y-2660836D1*
X6998992Y-2624617D1*
Y-2563690D1*
X6986919Y-2527190D1*
X6974846Y-2503043D1*
X6950419Y-2478617D1*
X6926273Y-2466543D1*
X6877700D1*
X7077423D2*
Y-2648763D1*
X7089497Y-2685263D1*
X7113923Y-2709409D1*
X7150423Y-2721763D1*
X7174570D1*
X7211070Y-2709409D1*
X7235497Y-2685263D1*
X7247570Y-2648763D1*
Y-2466543D1*
X7411074D2*
Y-2721763D1*
X7326001Y-2466543D2*
X7496147D1*
X8016044Y-2721763D2*
X7918618Y-2466543D1*
X7821471Y-2721763D1*
X7857971Y-2636690D2*
X7979544D1*
X8094476Y-2588117D2*
X8203695D1*
X8240195Y-2575763D1*
X8252549Y-2563690D1*
X8264622Y-2539543D1*
Y-2515117D1*
X8252549Y-2490970D1*
X8240195Y-2478617D1*
X8203695Y-2466543D1*
X8094476D1*
Y-2721763D1*
X8179549Y-2588117D2*
X8264622Y-2721763D1*
X8500846Y-2466543D2*
X8343053D1*
Y-2721763D1*
X8500846D1*
X8343053Y-2588117D2*
X8440200D1*
X8773850Y-2721763D2*
X8676423Y-2466543D1*
X8579277Y-2721763D1*
X8615777Y-2636690D2*
X8737350D1*
X5982220Y-2527190D2*
X5970147Y-2503043D1*
X5945720Y-2478617D1*
X5921574Y-2466543D1*
X5873001D1*
X5848574Y-2478617D1*
X5824428Y-2503043D1*
X5812074Y-2527190D1*
X5800001Y-2563690D1*
Y-2624617D1*
X5812074Y-2660836D1*
X5824428Y-2685263D1*
X5848574Y-2709409D1*
X5873001Y-2721763D1*
X5921574D1*
X5945720Y-2709409D1*
X5970147Y-2685263D1*
X5982220Y-2660836D1*
X6060652Y-2466543D2*
Y-2648763D1*
X6072725Y-2685263D1*
X6097152Y-2709409D1*
X6133652Y-2721763D1*
X6157798D1*
X6194298Y-2709409D1*
X6218725Y-2685263D1*
X6230798Y-2648763D1*
Y-2466543D1*
X6394302D2*
Y-2721763D1*
X6309229Y-2466543D2*
X6479375D1*
X6877700D2*
X6853273Y-2478617D1*
X6829127Y-2503043D1*
X6816773Y-2527190D1*
X6804700Y-2563690D1*
Y-2624617D1*
X6816773Y-2660836D1*
X6829127Y-2685263D1*
X6853273Y-2709409D1*
X6877700Y-2721763D1*
X6926273D1*
X6950419Y-2709409D1*
X6974846Y-2685263D1*
X6986919Y-2660836D1*
X6998992Y-2624617D1*
Y-2563690D1*
X6986919Y-2527190D1*
X6974846Y-2503043D1*
X6950419Y-2478617D1*
X6926273Y-2466543D1*
X6877700D1*
X7077423D2*
Y-2648763D1*
X7089497Y-2685263D1*
X7113923Y-2709409D1*
X7150423Y-2721763D1*
X7174570D1*
X7211070Y-2709409D1*
X7235497Y-2685263D1*
X7247570Y-2648763D1*
Y-2466543D1*
X7411074D2*
Y-2721763D1*
X7326001Y-2466543D2*
X7496147D1*
X8016044Y-2721763D2*
X7918618Y-2466543D1*
X7821471Y-2721763D1*
X7857971Y-2636690D2*
X7979544D1*
X8094476Y-2588117D2*
X8203695D1*
X8240195Y-2575763D1*
X8252549Y-2563690D1*
X8264622Y-2539543D1*
Y-2515117D1*
X8252549Y-2490970D1*
X8240195Y-2478617D1*
X8203695Y-2466543D1*
X8094476D1*
Y-2721763D1*
X8179549Y-2588117D2*
X8264622Y-2721763D1*
X8500846Y-2466543D2*
X8343053D1*
Y-2721763D1*
X8500846D1*
X8343053Y-2588117D2*
X8440200D1*
X8773850Y-2721763D2*
X8676423Y-2466543D1*
X8579277Y-2721763D1*
X8615777Y-2636690D2*
X8737350D1*
X1656900Y-1547768D2*
D37*
X1649656Y-1540440D1*
X1638706Y-1536818D1*
X1624134D1*
X1613184Y-1540440D1*
X1605856Y-1547768D1*
Y-1555012D1*
X1609562Y-1562340D1*
X1613184Y-1565962D1*
X1620428Y-1569584D1*
X1642328Y-1576912D1*
X1649656Y-1580534D1*
X1653278Y-1584240D1*
X1656900Y-1591484D1*
Y-1602434D1*
X1649656Y-1609678D1*
X1638706Y-1613384D1*
X1624134D1*
X1613184Y-1609678D1*
X1605856Y-1602434D1*
X1680429Y-1536818D2*
X1698707Y-1613384D1*
X1716901Y-1536818D1*
X1735095Y-1613384D1*
X1753373Y-1536818D1*
X1809668Y-1542335D2*
Y-1607951D1*
X1776902Y-1575185D2*
X1842518D1*
X1673728Y-1813384D2*
X1644500Y-1736818D1*
X1615356Y-1813384D1*
X1626306Y-1787862D2*
X1662778D1*
X1615356Y-1936818D2*
Y-2013384D1*
X1666400Y-1936818D2*
X1615356Y-1987862D1*
X1633550Y-1969584D2*
X1666400Y-2013384D1*
X1605856Y-2236818D2*
Y-2313384D1*
X1631378D1*
X1642328Y-2309678D1*
X1649656Y-2302434D1*
X1653278Y-2295106D1*
X1656900Y-2284240D1*
Y-2265962D1*
X1653278Y-2255012D1*
X1649656Y-2247768D1*
X1642328Y-2240440D1*
X1631378Y-2236818D1*
X1605856D1*
X1680429D2*
Y-2313384D1*
X1713279D1*
X1724229Y-2309678D1*
X1727851Y-2306056D1*
X1731473Y-2298812D1*
Y-2287862D1*
X1727851Y-2280534D1*
X1724229Y-2276912D1*
X1713279Y-2273290D1*
X1724229Y-2269584D1*
X1727851Y-2265962D1*
X1731473Y-2258718D1*
Y-2251390D1*
X1727851Y-2244146D1*
X1724229Y-2240440D1*
X1713279Y-2236818D1*
X1680429D1*
Y-2273290D2*
X1713279D1*
X1769574Y-2313384D2*
X1806046Y-2236903D1*
X1755002D1*
X1605856Y-2536818D2*
Y-2613384D1*
X1631378D1*
X1642328Y-2609678D1*
X1649656Y-2602434D1*
X1653278Y-2595106D1*
X1656900Y-2584240D1*
Y-2565962D1*
X1653278Y-2555012D1*
X1649656Y-2547768D1*
X1642328Y-2540440D1*
X1631378Y-2536818D1*
X1605856D1*
X1680429D2*
Y-2613384D1*
X1713279D1*
X1724229Y-2609678D1*
X1727851Y-2606056D1*
X1731473Y-2598812D1*
Y-2587862D1*
X1727851Y-2580534D1*
X1724229Y-2576912D1*
X1713279Y-2573290D1*
X1724229Y-2569584D1*
X1727851Y-2565962D1*
X1731473Y-2558718D1*
Y-2551390D1*
X1727851Y-2544146D1*
X1724229Y-2540440D1*
X1713279Y-2536818D1*
X1680429D1*
Y-2573290D2*
X1713279D1*
X1798718Y-2536903D2*
X1762330D1*
X1758708Y-2569668D1*
X1762330Y-2566046D1*
X1773280Y-2562340D1*
X1784146D1*
X1795096Y-2566046D1*
X1802424Y-2573290D1*
X1806046Y-2584240D1*
Y-2591484D1*
X1802424Y-2602434D1*
X1795096Y-2609762D1*
X1784146Y-2613384D1*
X1773280D1*
X1762330Y-2609762D1*
X1758708Y-2606056D1*
X1755002Y-2598812D1*
X1662693Y-2773318D2*
X1615356D1*
Y-2849884D1*
X1662693D1*
X1615356Y-2809790D2*
X1644500D1*
X1605856Y-3035290D2*
X1638621D1*
X1649571Y-3031584D1*
X1653278Y-3027962D1*
X1656900Y-3020718D1*
Y-3013390D1*
X1653278Y-3006146D1*
X1649571Y-3002440D1*
X1638621Y-2998818D1*
X1605856D1*
Y-3075384D1*
X1631378Y-3035290D2*
X1656900Y-3075384D1*
X1731473Y-3009768D2*
X1724229Y-3002440D1*
X1713279Y-2998818D1*
X1698707D1*
X1687757Y-3002440D1*
X1680429Y-3009768D1*
Y-3017012D1*
X1684135Y-3024340D1*
X1687757Y-3027962D1*
X1695001Y-3031584D1*
X1716901Y-3038912D1*
X1724229Y-3042534D1*
X1727851Y-3046240D1*
X1731473Y-3053484D1*
Y-3064434D1*
X1724229Y-3071678D1*
X1713279Y-3075384D1*
X1698707D1*
X1687757Y-3071678D1*
X1680429Y-3064434D1*
X1638621Y-3256835D2*
Y-3322451D1*
X1605856Y-3289685D2*
X1671471D1*
X1738717Y-3251403D2*
X1702329D1*
X1698707Y-3284168D1*
X1702329Y-3280546D1*
X1713279Y-3276840D1*
X1724145D1*
X1735095Y-3280546D1*
X1742423Y-3287790D1*
X1746045Y-3298740D1*
Y-3305984D1*
X1742423Y-3316934D1*
X1735095Y-3324262D1*
X1724145Y-3327884D1*
X1713279D1*
X1702329Y-3324262D1*
X1698707Y-3320556D1*
X1695001Y-3313312D1*
X1769574Y-3251318D2*
X1798718Y-3327884D1*
X1827862Y-3251318D1*
X831400Y-1547768D2*
X824156Y-1540440D1*
X813206Y-1536818D1*
X798634D1*
X787684Y-1540440D1*
X780356Y-1547768D1*
Y-1555012D1*
X784062Y-1562340D1*
X787684Y-1565962D1*
X794928Y-1569584D1*
X816828Y-1576912D1*
X824156Y-1580534D1*
X827778Y-1584240D1*
X831400Y-1591484D1*
Y-1602434D1*
X824156Y-1609678D1*
X813206Y-1613384D1*
X798634D1*
X787684Y-1609678D1*
X780356Y-1602434D1*
X854929Y-1536818D2*
X873207Y-1613384D1*
X891401Y-1536818D1*
X909595Y-1613384D1*
X927873Y-1536818D1*
X987874Y-1613384D2*
Y-1536903D1*
X951402Y-1587862D1*
X1006068D1*
X831400Y-1801768D2*
X824156Y-1794440D1*
X813206Y-1790818D1*
X798634D1*
X787684Y-1794440D1*
X780356Y-1801768D1*
Y-1809012D1*
X784062Y-1816340D1*
X787684Y-1819962D1*
X794928Y-1823584D1*
X816828Y-1830912D1*
X824156Y-1834534D1*
X827778Y-1838240D1*
X831400Y-1845484D1*
Y-1856434D1*
X824156Y-1863678D1*
X813206Y-1867384D1*
X798634D1*
X787684Y-1863678D1*
X780356Y-1856434D1*
X854929Y-1790818D2*
X873207Y-1867384D1*
X891401Y-1790818D1*
X909595Y-1867384D1*
X927873Y-1790818D1*
X958730Y-1790903D2*
X998740D1*
X976924Y-1820046D1*
X987874D1*
X995118Y-1823668D1*
X998740Y-1827290D1*
X1002446Y-1838240D1*
Y-1845484D1*
X998740Y-1856434D1*
X991496Y-1863762D1*
X980546Y-1867384D1*
X969596D1*
X958730Y-1863762D1*
X955108Y-1860056D1*
X951402Y-1852812D1*
X831400Y-2055768D2*
X824156Y-2048440D1*
X813206Y-2044818D1*
X798634D1*
X787684Y-2048440D1*
X780356Y-2055768D1*
Y-2063012D1*
X784062Y-2070340D1*
X787684Y-2073962D1*
X794928Y-2077584D1*
X816828Y-2084912D1*
X824156Y-2088534D1*
X827778Y-2092240D1*
X831400Y-2099484D1*
Y-2110434D1*
X824156Y-2117678D1*
X813206Y-2121384D1*
X798634D1*
X787684Y-2117678D1*
X780356Y-2110434D1*
X854929Y-2044818D2*
X873207Y-2121384D1*
X891401Y-2044818D1*
X909595Y-2121384D1*
X927873Y-2044818D1*
X955108Y-2063096D2*
Y-2059475D1*
X958730Y-2052146D1*
X962352Y-2048525D1*
X969680Y-2044903D1*
X984252D1*
X991496Y-2048525D1*
X995118Y-2052146D1*
X998824Y-2059475D1*
Y-2066718D1*
X995118Y-2074046D1*
X987874Y-2084912D1*
X951402Y-2121384D1*
X1002446D1*
X831400Y-2309768D2*
X824156Y-2302440D1*
X813206Y-2298818D1*
X798634D1*
X787684Y-2302440D1*
X780356Y-2309768D1*
Y-2317012D1*
X784062Y-2324340D1*
X787684Y-2327962D1*
X794928Y-2331584D1*
X816828Y-2338912D1*
X824156Y-2342534D1*
X827778Y-2346240D1*
X831400Y-2353484D1*
Y-2364434D1*
X824156Y-2371678D1*
X813206Y-2375384D1*
X798634D1*
X787684Y-2371678D1*
X780356Y-2364434D1*
X854929Y-2298818D2*
X873207Y-2375384D1*
X891401Y-2298818D1*
X909595Y-2375384D1*
X927873Y-2298818D1*
X951402Y-2313475D2*
X958730Y-2309768D1*
X969680Y-2298903D1*
Y-2375384D1*
X780356Y-2552818D2*
Y-2629384D1*
X805878D1*
X816828Y-2625678D1*
X824156Y-2618434D1*
X827778Y-2611106D1*
X831400Y-2600240D1*
Y-2581962D1*
X827778Y-2571012D1*
X824156Y-2563768D1*
X816828Y-2556440D1*
X805878Y-2552818D1*
X780356D1*
X854929D2*
Y-2629384D1*
X887779D1*
X898729Y-2625678D1*
X902351Y-2622056D1*
X905973Y-2614812D1*
Y-2603862D1*
X902351Y-2596534D1*
X898729Y-2592912D1*
X887779Y-2589290D1*
X898729Y-2585584D1*
X902351Y-2581962D1*
X905973Y-2574718D1*
Y-2567390D1*
X902351Y-2560146D1*
X898729Y-2556440D1*
X887779Y-2552818D1*
X854929D1*
Y-2589290D2*
X887779D1*
X973218Y-2563768D2*
X969596Y-2556525D1*
X958646Y-2552903D1*
X951402D1*
X940452Y-2556525D1*
X933124Y-2567475D1*
X929502Y-2585668D1*
Y-2603862D1*
X933124Y-2618434D1*
X940452Y-2625762D1*
X951402Y-2629384D1*
X955024D1*
X965890Y-2625762D1*
X973218Y-2618434D1*
X976840Y-2607484D1*
Y-2603862D1*
X973218Y-2592912D1*
X965890Y-2585668D1*
X955024Y-2582046D1*
X951402D1*
X940452Y-2585668D1*
X933124Y-2592912D1*
X929502Y-2603862D1*
X780356Y-2806818D2*
Y-2883384D1*
X805878D1*
X816828Y-2879678D1*
X824156Y-2872434D1*
X827778Y-2865106D1*
X831400Y-2854240D1*
Y-2835962D1*
X827778Y-2825012D1*
X824156Y-2817768D1*
X816828Y-2810440D1*
X805878Y-2806818D1*
X780356D1*
X854929D2*
Y-2883384D1*
X887779D1*
X898729Y-2879678D1*
X902351Y-2876056D1*
X905973Y-2868812D1*
Y-2857862D1*
X902351Y-2850534D1*
X898729Y-2846912D1*
X887779Y-2843290D1*
X898729Y-2839584D1*
X902351Y-2835962D1*
X905973Y-2828718D1*
Y-2821390D1*
X902351Y-2814146D1*
X898729Y-2810440D1*
X887779Y-2806818D1*
X854929D1*
Y-2843290D2*
X887779D1*
X965974Y-2883384D2*
Y-2806903D1*
X929502Y-2857862D1*
X984168D1*
X843856Y-3097290D2*
X876621D1*
X887571Y-3093584D1*
X891278Y-3089962D1*
X894900Y-3082718D1*
Y-3075390D1*
X891278Y-3068146D1*
X887571Y-3064440D1*
X876621Y-3060818D1*
X843856D1*
Y-3137384D1*
X869378Y-3097290D2*
X894900Y-3137384D1*
X918429Y-3060818D2*
X936707Y-3137384D1*
X954901Y-3060818D1*
X973095Y-3137384D1*
X991373Y-3060818D1*
X835021Y-3333012D2*
X831400Y-3325768D1*
X824071Y-3318440D1*
X816828Y-3314818D1*
X802256D1*
X794928Y-3318440D1*
X787684Y-3325768D1*
X783978Y-3333012D1*
X780356Y-3343962D1*
Y-3362240D1*
X783978Y-3373106D1*
X787684Y-3380434D1*
X794928Y-3387678D1*
X802256Y-3391384D1*
X816828D1*
X824071Y-3387678D1*
X831400Y-3380434D1*
X835021Y-3373106D1*
Y-3362240D1*
X816828D1*
X909595Y-3314818D2*
Y-3391384D1*
X858551Y-3314818D1*
Y-3391384D1*
X933124Y-3314818D2*
Y-3391384D1*
X958646D1*
X969596Y-3387678D1*
X976924Y-3380434D1*
X980546Y-3373106D1*
X984168Y-3362240D1*
Y-3343962D1*
X980546Y-3333012D1*
X976924Y-3325768D1*
X969596Y-3318440D1*
X958646Y-3314818D1*
X933124D1*
X1088814Y-3587777D2*
D35*
X1076600Y-3599850D1*
X1064527Y-3618100D1*
X1052314Y-3642387D1*
X1046277Y-3672850D1*
Y-3697137D1*
X1052314Y-3727460D1*
X1064527Y-3751746D1*
X1076600Y-3769996D1*
X1088814Y-3782070D1*
X1219139Y-3651371D2*
X1213103Y-3639298D1*
X1200889Y-3627085D1*
X1188816Y-3621048D1*
X1164529D1*
X1152316Y-3627085D1*
X1140243Y-3639298D1*
X1134066Y-3651371D1*
X1128029Y-3669621D1*
Y-3700085D1*
X1134066Y-3718195D1*
X1140243Y-3730408D1*
X1152316Y-3742481D1*
X1164529Y-3748658D1*
X1188816D1*
X1200889Y-3742481D1*
X1213103Y-3730408D1*
X1219139Y-3718195D1*
X1343428Y-3621048D2*
Y-3748658D1*
X1258355Y-3621048D1*
Y-3748658D1*
X1382644Y-3645475D2*
X1394857Y-3639298D1*
X1413107Y-3621189D1*
Y-3748658D1*
X1452323Y-3587777D2*
X1464536Y-3599850D1*
X1476609Y-3618100D1*
X1488823Y-3642387D1*
X1494859Y-3672850D1*
Y-3697137D1*
X1488823Y-3727460D1*
X1476609Y-3751746D1*
X1464536Y-3769996D1*
X1452323Y-3782070D1*
X16779910Y-1780011D2*
D37*
X16776288D1*
X16768960Y-1776389D1*
X16765338Y-1772767D1*
X16761716Y-1765439D1*
Y-1750867D1*
X16765338Y-1743624D1*
X16768960Y-1740002D1*
X16776288Y-1736295D1*
X16783532D1*
X16790860Y-1740002D1*
X16801726Y-1747245D1*
X16838197Y-1783717D1*
X16838198Y-1732674D1*
X16761716Y-1687244D2*
X16765338Y-1698194D1*
X16776288Y-1705522D1*
X16794482Y-1709144D1*
X16805432D1*
X16823626Y-1705522D1*
X16834576Y-1698194D1*
X16838198Y-1687244D1*
Y-1680001D1*
X16834576Y-1669051D1*
X16823626Y-1661807D1*
X16805432Y-1658100D1*
X16794482D1*
X16776288Y-1661807D1*
X16765338Y-1669050D1*
X16761716Y-1680000D1*
Y-1687244D1*
X16776288Y-1661807D2*
X16823626Y-1705522D1*
X16776288Y-1634571D2*
X16772582Y-1627243D1*
X16761716Y-1616293D1*
X16838198D1*
Y-1578192D2*
X16761716Y-1541720D1*
Y-1592764D1*
X16761632Y-1444122D2*
Y-1393079D1*
X16838198Y-1444123D1*
Y-1393079D1*
X16809054Y-1369549D2*
Y-1325833D1*
X16801726D1*
X16794398Y-1329455D1*
X16790776Y-1333077D1*
X16787154Y-1340405D1*
Y-1351355D1*
X16790776Y-1358599D1*
X16798104Y-1365927D1*
X16809054Y-1369549D1*
X16816298D1*
X16827248Y-1365927D1*
X16834491Y-1358599D1*
X16838198Y-1351355D1*
Y-1340405D1*
X16834491Y-1333077D1*
X16827248Y-1325833D1*
X16787154Y-1302304D2*
X16838198D1*
X16801726D2*
X16790776Y-1291354D1*
X16787154Y-1284026D1*
Y-1273160D1*
X16790776Y-1265832D1*
X16801726Y-1262210D1*
X16838197D1*
X16787154Y-1234975D2*
X16838197Y-1213159D1*
X16852769Y-1220403D1*
X16860097Y-1227731D1*
X16863719Y-1234975D1*
Y-1238681D1*
X16787154Y-1191259D2*
X16838197Y-1213159D1*
X16787154Y-1149536D2*
X16790776Y-1156779D1*
X16798104Y-1164108D1*
X16809054Y-1167729D1*
X16816298D1*
X16827248Y-1164108D1*
X16834491Y-1156779D1*
X16838197Y-1149536D1*
Y-1138586D1*
X16834491Y-1131258D1*
X16827248Y-1124014D1*
X16816298Y-1120308D1*
X16809054D1*
X16798104Y-1124014D1*
X16790776Y-1131258D1*
X16787154Y-1138586D1*
Y-1149536D1*
Y-1096778D2*
X16823626D1*
X16834491Y-1093156D1*
X16838197Y-1085828D1*
Y-1074878D1*
X16834491Y-1067634D1*
X16823626Y-1056684D1*
X16787154D2*
X16838197D1*
X16761548Y-1018583D2*
X16765169Y-1014877D1*
X16761548Y-1011255D1*
X16757926Y-1014877D1*
X16761548Y-1018583D1*
X16787069Y-1014877D2*
X16849063D1*
X16860013Y-1018583D1*
X16863635Y-1025827D1*
Y-1033155D1*
X16761632Y-987725D2*
X16765254Y-984104D1*
X16761632Y-980397D1*
X16757926Y-984104D1*
X16761632Y-987725D1*
X16787154Y-984104D2*
X16838197D1*
M02*
