G04 DipTrace 3.0.0.2*
G04 FrontPanel.GBS*
%MOMM*%
G04 #@! TF.FileFunction,Soldermask,Bot*
G04 #@! TF.Part,Single*
%ADD22C,3.0*%
%ADD23C,3.5*%
%ADD27C,2.2*%
%ADD31C,2.2*%
%ADD33O,2.2X1.7*%
%FSLAX35Y35*%
G04*
G71*
G90*
G75*
G01*
G04 BotMask*
%LPD*%
D33*
X1454000Y-1600000D3*
X1200000D3*
X1454000Y-1854000D3*
X1200000D3*
X1454000Y-2108000D3*
X1200000D3*
X1454000Y-2362000D3*
X1200000D3*
X1454000Y-2616000D3*
X1200000D3*
X1454000Y-2870000D3*
X1200000D3*
X1454000Y-3124000D3*
X1200000D3*
X1454000Y-3378000D3*
X1200000D3*
D22*
X1327000Y-709000D3*
Y-4269000D3*
D33*
X2300000Y-3300000D3*
X2046000D3*
X2300000Y-3046000D3*
X2046000D3*
X2300000Y-2792000D3*
X2046000D3*
X2300000Y-2538000D3*
X2046000D3*
X2300000Y-2284000D3*
X2046000D3*
X2300000Y-2030000D3*
X2046000D3*
X2300000Y-1776000D3*
X2046000D3*
D31*
X12968000Y-3046000D3*
Y-2792000D3*
Y-2538000D3*
Y-2284000D3*
Y-2030000D3*
D23*
X2196000Y-1088000D3*
Y-3988000D3*
X12996000Y-1088000D3*
Y-3988000D3*
D22*
X500000Y-500000D3*
Y-4500000D3*
X16500000Y-500000D3*
Y-4500000D3*
X14000000Y-500000D3*
Y-4500000D3*
D27*
X15000000Y-2100000D3*
X13750000D3*
X15000000Y-1600000D3*
X13750000D3*
X15000000Y-3500000D3*
X13750000D3*
X15000000Y-3000000D3*
X13750000D3*
X16500000Y-2100000D3*
X15250000D3*
X16500000Y-1600000D3*
X15250000D3*
X16500000Y-3500000D3*
X15250000D3*
X16500000Y-3000000D3*
X15250000D3*
X700000Y-4000000D3*
X200000Y-3750000D3*
X700000Y-3500000D3*
M02*
