M48
METRIC,0000.00
T01C0.3
T02C1.0
T03C3.0
T04C3.5
%
T01
X+013399Y-000445
X+014565Y-001295
X+014859Y-001143
X+014565Y-004270
X+015018Y-004413
X+002455Y-003578
X+001534Y-003750
X+001079Y-003937
X+000440Y-003750
X+000381Y-004127
X+000710Y-002705
X+000800Y-002616
X+001040Y-002616
X+001040Y-002362
X+001005Y-001978
X+000620Y-002362
X+001454Y-001305
X+001524Y-000317
T02
X+001454Y-001600
X+001200Y-001600
X+001200Y-001854
X+001454Y-001854
X+001454Y-002108
X+001200Y-002108
X+001200Y-002362
X+001454Y-002362
X+001454Y-002616
X+001200Y-002616
X+001200Y-002870
X+001454Y-002870
X+001454Y-003124
X+001200Y-003124
X+001200Y-003378
X+001454Y-003378
X+002046Y-003300
X+002300Y-003300
X+002300Y-003046
X+002046Y-003046
X+002046Y-002792
X+002300Y-002792
X+002300Y-002538
X+002046Y-002538
X+002046Y-002284
X+002300Y-002284
X+002300Y-002030
X+002046Y-002030
X+002046Y-001776
X+002300Y-001776
X+000700Y-003500
X+000700Y-004000
X+000200Y-003750
X+012968Y-003046
X+012968Y-002792
X+012968Y-002538
X+012968Y-002284
X+012968Y-002030
X+013750Y-002100
X+013750Y-001600
X+015000Y-001600
X+015250Y-001600
X+015250Y-002100
X+015000Y-002100
X+015000Y-003000
X+015250Y-003000
X+015250Y-003500
X+015000Y-003500
X+013750Y-003500
X+013750Y-003000
X+016500Y-003000
X+016500Y-003500
X+016500Y-002100
X+016500Y-001600
T03
X+001327Y-000709
X+000500Y-000500
X+001327Y-004269
X+000500Y-004500
X+014000Y-004500
X+016500Y-004500
X+016500Y-000500
X+014000Y-000500
T04
X+002196Y-001088
X+002196Y-003988
X+012996Y-003988
X+012996Y-001088
T00
M30
