G04 DipTrace 3.0.0.2*
G04 FrontPanel.GBL*
%MOMM*%
G04 #@! TF.FileFunction,Copper,L2,Bot*
G04 #@! TF.Part,Single*
G04 #@! TA.AperFunction,Conductor*
%ADD14C,0.5*%
G04 #@! TA.AperFunction,ComponentPad*
%ADD16O,2.0X1.5*%
%ADD17C,2.0*%
%ADD19C,2.0*%
G04 #@! TA.AperFunction,ViaPad*
%ADD20C,0.6*%
%FSLAX35Y35*%
G04*
G71*
G90*
G75*
G01*
G04 Bottom*
%LPD*%
X13398500Y-444500D2*
D14*
Y-1853500D1*
X12968000Y-2284000D1*
X710010Y-2705000D2*
Y-1639490D1*
X959500Y-1390000D1*
X1689000D1*
X1865000Y-1566000D1*
X2375000D1*
X2508250Y-1699250D1*
Y-1936750D1*
X2415000Y-2030000D1*
X2300000D1*
X1454000Y-2616000D2*
X1609000D1*
X1689000Y-2536000D1*
Y-2110000D1*
X1768997Y-2030000D1*
X2046000D1*
X800010Y-2616000D2*
Y-1676490D1*
X1006500Y-1470000D1*
X1609003D1*
X1785000Y-1646000D1*
X2217500D1*
X2300000Y-1728500D1*
Y-1776000D1*
X1040000Y-2616000D2*
X1200000D1*
X1454000Y-2362000D2*
X1609000D1*
Y-1856000D1*
X1689000Y-1776000D1*
X2046000D1*
X1454000Y-2870000D2*
X1609000D1*
X1687000Y-2792000D1*
X2046000D1*
X1454000Y-3124000D2*
X1609000D1*
X1687000Y-3046000D1*
X2046000D1*
X1200000Y-3124000D2*
X1000050D1*
Y-3574990D1*
X1080050Y-3654990D1*
X1602000D1*
X1682000Y-3734990D1*
Y-4285500D1*
X1866560Y-4470060D1*
X2387940D1*
X2601000Y-4257000D1*
Y-2872000D1*
X2521000Y-2792000D1*
X2300000D1*
X1534000Y-3750000D2*
X440000D1*
X2455000Y-3578000D2*
Y-3121750D1*
X2379250Y-3046000D1*
X2300000D1*
X1454000Y-3378000D2*
X1772000D1*
X1850000Y-3300000D1*
X2046000D1*
X1079500Y-3937000D2*
X700000D1*
Y-4000000D1*
X2300000Y-3300000D2*
Y-3494990D1*
X2220000Y-3574990D1*
X1200000D1*
Y-3378000D1*
X15250000Y-3000000D2*
X15485000Y-2765000D1*
Y-1835000D1*
X15250000Y-1600000D1*
X13750000Y-3000000D2*
X13985000Y-2765000D1*
Y-1835000D1*
X13750000Y-1600000D1*
X2046000Y-2284000D2*
Y-2538000D1*
X2300000D2*
Y-2284000D1*
X1454000Y-1305000D2*
X1682000Y-1077000D1*
Y-459950D1*
X1887950Y-254000D1*
X13389060D1*
X13595010Y-459950D1*
Y-1215000D1*
X13675010Y-1295000D1*
X14565000D1*
Y-4270000D1*
X14859000Y-1143000D2*
X14795500Y-1206500D1*
Y-1895500D1*
X15000000Y-2100000D1*
X620020Y-2362000D2*
Y-1602480D1*
X855000Y-1367500D1*
Y-669000D1*
X1206500Y-317500D1*
X1524000D1*
X1040000Y-2362000D2*
X1200000D1*
X381000Y-4127500D2*
X355000Y-4101500D1*
Y-3282520D1*
X920060Y-2717460D1*
Y-2188000D1*
X1000060Y-2108000D1*
X1200000D1*
X15017750Y-4413250D2*
Y-3500000D1*
X15000000D1*
X1005050Y-1978000D2*
Y-1693700D1*
X1098750Y-1600000D1*
X1200000D1*
D20*
X13398500Y-444500D3*
X710010Y-2705000D3*
X800010Y-2616000D3*
X1040000D3*
X440000Y-3750000D3*
X1534000D3*
X2455000Y-3578000D3*
X1079500Y-3937000D3*
X14565000Y-4270000D3*
X1454000Y-1305000D3*
X14565000Y-1295000D3*
X14859000Y-1143000D3*
X1524000Y-317500D3*
X620020Y-2362000D3*
X1040000D3*
X381000Y-4127500D3*
X15017750Y-4413250D3*
X1005050Y-1978000D3*
D16*
X1454000Y-1600000D3*
X1200000D3*
X1454000Y-1854000D3*
X1200000D3*
X1454000Y-2108000D3*
X1200000D3*
X1454000Y-2362000D3*
X1200000D3*
X1454000Y-2616000D3*
X1200000D3*
X1454000Y-2870000D3*
X1200000D3*
X1454000Y-3124000D3*
X1200000D3*
X1454000Y-3378000D3*
X1200000D3*
X2300000Y-3300000D3*
X2046000D3*
X2300000Y-3046000D3*
X2046000D3*
X2300000Y-2792000D3*
X2046000D3*
X2300000Y-2538000D3*
X2046000D3*
X2300000Y-2284000D3*
X2046000D3*
X2300000Y-2030000D3*
X2046000D3*
X2300000Y-1776000D3*
X2046000D3*
D17*
X12968000Y-3046000D3*
Y-2792000D3*
Y-2538000D3*
Y-2284000D3*
Y-2030000D3*
D19*
X15000000Y-2100000D3*
X13750000D3*
X15000000Y-1600000D3*
X13750000D3*
X15000000Y-3500000D3*
X13750000D3*
X15000000Y-3000000D3*
X13750000D3*
X16500000Y-2100000D3*
X15250000D3*
X16500000Y-1600000D3*
X15250000D3*
X16500000Y-3500000D3*
X15250000D3*
X16500000Y-3000000D3*
X15250000D3*
X700000Y-4000000D3*
X200000Y-3750000D3*
X700000Y-3500000D3*
M02*
