G04 DipTrace 3.0.0.2*
G04 FrontPanel.GTL*
%MOMM*%
G04 #@! TF.FileFunction,Copper,L1,Top*
G04 #@! TF.Part,Single*
G04 #@! TA.AperFunction,Conductor*
%ADD14C,0.5*%
G04 #@! TA.AperFunction,ComponentPad*
%ADD16O,2.0X1.5*%
%ADD17C,2.0*%
%ADD18R,1.3X1.2*%
G04 #@! TA.AperFunction,ComponentPad*
%ADD19C,2.0*%
G04 #@! TA.AperFunction,ViaPad*
%ADD20C,0.6*%
%FSLAX35Y35*%
G04*
G71*
G90*
G75*
G01*
G04 Top*
%LPD*%
X13398500Y-444500D2*
D14*
X13335000Y-381000D1*
X1845950D1*
X1682000Y-544950D1*
Y-1854000D1*
X1454000D1*
X710010Y-2705000D2*
X875010Y-2870000D1*
X1200000D1*
X1040000Y-2616000D2*
X800010D1*
X1454000Y-2108000D2*
X1682000D1*
X1762000Y-2028000D1*
Y-638350D1*
X1892350Y-508000D1*
X13270650D1*
X13401000Y-638350D1*
Y-2359000D1*
X12968000Y-2792000D1*
X440000Y-3750000D2*
X200000D1*
X2455000Y-3578000D2*
X1706003D1*
X1534000Y-3750000D1*
X1454000Y-3378000D2*
Y-3467250D1*
X1365250Y-3556000D1*
X1067000D1*
X1011000Y-3500000D1*
X700000D1*
X15250000Y-3000000D2*
X15015000Y-2765000D1*
X13985000D1*
X13750000Y-3000000D1*
X13401000Y-3349000D1*
Y-4475060D1*
X13321000Y-4555060D1*
X2713560D1*
X2601000Y-4442500D1*
Y-3446000D1*
X2455000Y-3300000D1*
Y-2613750D1*
X2379250Y-2538000D1*
X2300000D1*
Y-3300000D2*
X2455000D1*
X2300000Y-2284000D2*
X2046000D1*
X2601000Y-4442500D2*
X1839000D1*
X1682000Y-4285500D1*
Y-3994000D1*
X1602000Y-3914000D1*
X1102500D1*
X1079500Y-3937000D1*
X1454000Y-1305000D2*
Y-1600000D1*
X14808133Y-4270000D2*
X14565000D1*
Y-1295000D2*
Y-1048000D1*
X14645000Y-968000D1*
X14808133D1*
Y-4270000D2*
Y-4114867D1*
X14859000Y-4064000D1*
X15240000D1*
X15303500Y-4127500D1*
Y-4257367D1*
X15316133Y-4270000D1*
X14565000Y-1295000D2*
X15119750D1*
X15303500Y-1111250D1*
Y-980633D1*
X15316133Y-968000D1*
X1524000Y-317500D2*
X1587500Y-254000D1*
X13398500D1*
X13589000Y-444500D1*
Y-698500D1*
X13716000Y-825500D1*
X14890750D1*
X14968167Y-902917D1*
Y-968000D1*
X1040000Y-2362000D2*
X620020D1*
X14968167Y-968000D2*
Y-1065583D1*
X14890750Y-1143000D1*
X14859000D1*
X15017750Y-4413250D2*
X14968167Y-4363667D1*
Y-4270000D1*
X381000Y-4127500D2*
X603250D1*
X635000Y-4159250D1*
X698500D1*
X857250Y-4318000D1*
Y-4572000D1*
X1143000Y-4857750D1*
X14509750D1*
X14968167Y-4399333D1*
Y-4270000D1*
X16500000Y-2100000D2*
X15476167Y-1076167D1*
Y-968000D1*
Y-839417D1*
X14781750Y-145000D1*
X1379000D1*
X920060Y-603940D1*
Y-1774000D1*
X1000060Y-1854000D1*
X1200000D1*
X1005050Y-1978000D2*
X752500D1*
X525000Y-2205500D1*
Y-3636500D1*
X635000Y-3746500D1*
X762000D1*
X952500Y-3937000D1*
Y-4381500D1*
X1211060Y-4640060D1*
X13481000D1*
X13561000Y-4560060D1*
Y-4085000D1*
X13709000Y-3937000D1*
X15328137D1*
X15476133Y-4084997D1*
Y-4270000D1*
X15730000D1*
X16500000Y-3500000D1*
D20*
X13398500Y-444500D3*
X710010Y-2705000D3*
X800010Y-2616000D3*
X1040000D3*
X440000Y-3750000D3*
X1534000D3*
X2455000Y-3578000D3*
X1079500Y-3937000D3*
X14565000Y-4270000D3*
X1454000Y-1305000D3*
X14565000Y-1295000D3*
X14859000Y-1143000D3*
X1524000Y-317500D3*
X620020Y-2362000D3*
X1040000D3*
X381000Y-4127500D3*
X15017750Y-4413250D3*
X1005050Y-1978000D3*
D16*
X1454000Y-1600000D3*
X1200000D3*
X1454000Y-1854000D3*
X1200000D3*
X1454000Y-2108000D3*
X1200000D3*
X1454000Y-2362000D3*
X1200000D3*
X1454000Y-2616000D3*
X1200000D3*
X1454000Y-2870000D3*
X1200000D3*
X1454000Y-3124000D3*
X1200000D3*
X1454000Y-3378000D3*
X1200000D3*
X2300000Y-3300000D3*
X2046000D3*
X2300000Y-3046000D3*
X2046000D3*
X2300000Y-2792000D3*
X2046000D3*
X2300000Y-2538000D3*
X2046000D3*
X2300000Y-2284000D3*
X2046000D3*
X2300000Y-2030000D3*
X2046000D3*
X2300000Y-1776000D3*
X2046000D3*
D17*
X12968000Y-3046000D3*
Y-2792000D3*
Y-2538000D3*
Y-2284000D3*
Y-2030000D3*
D18*
X14968167Y-968000D3*
X14808133D3*
X14968167Y-4270000D3*
X14808133D3*
X15476167Y-968000D3*
X15316133D3*
X15476167Y-4270000D3*
X15316133D3*
D19*
X15000000Y-2100000D3*
X13750000D3*
X15000000Y-1600000D3*
X13750000D3*
X15000000Y-3500000D3*
X13750000D3*
X15000000Y-3000000D3*
X13750000D3*
X16500000Y-2100000D3*
X15250000D3*
X16500000Y-1600000D3*
X15250000D3*
X16500000Y-3500000D3*
X15250000D3*
X16500000Y-3000000D3*
X15250000D3*
X700000Y-4000000D3*
X200000Y-3750000D3*
X700000Y-3500000D3*
M02*
